<svg xmlns="http://www.w3.org/2000/svg" x="0px" y="0px" width="100" fill="#dfe9ff" height="100" viewBox="0 0 100 100">
<path d="M 31 18 C 23.82 18 18 23.82 18 31 L 18 70 C 18 77.18 23.82 83 31 83 L 70 83 C 71.217371 83 72.390303 82.820776 73.507812 82.507812 A 0.50005 0.50005 0 0 0 73.726562 82.451172 C 79.088333 80.848149 83 75.883647 83 70 L 83 40.5625 A 0.50005 0.50005 0 0 0 83 40.425781 L 83 31 C 83 23.82 77.18 18 70 18 L 31 18 z M 31 20 L 38 20 L 38 52.636719 L 34.716797 51.050781 A 0.50005 0.50005 0 0 0 34.109375 51.1875 L 30.195312 56.080078 L 28 56.90625 L 28 41.5 A 0.50005 0.50005 0 0 0 27.492188 40.992188 A 0.50005 0.50005 0 0 0 27 41.5 L 27 56.796875 L 23.734375 55.058594 A 0.50005 0.50005 0 0 0 23.621094 55.015625 L 20 54.109375 L 20 31 C 20 26.337977 22.905048 22.363138 27 20.761719 L 27 29.5 A 0.50005 0.50005 0 1 0 28 29.5 L 28 20.423828 C 28.954775 20.153446 29.958538 20 31 20 z M 39 20 L 50 20 L 50 24.5 A 0.50005 0.50005 0 1 0 51 24.5 L 51 20 L 60 20 L 60 35.351562 C 58.822708 35.916428 58 37.11143 58 38.5 C 58 39.88857 58.822708 41.083572 60 41.648438 L 60 42.208984 L 57.171875 50.107422 L 54.363281 51.09375 A 0.50005 0.50005 0 0 0 54.115234 51.285156 L 51 55.873047 L 51 33.5 A 0.50005 0.50005 0 0 0 50.492188 32.992188 A 0.50005 0.50005 0 0 0 50 33.5 L 50 56.691406 L 46.894531 55.138672 L 42.964844 45.314453 A 0.50005 0.50005 0 0 0 42.052734 45.275391 L 39 51.332031 L 39 20 z M 61 20 L 62 20 L 62 35.050781 C 61.835171 35.026788 61.671283 35 61.5 35 C 61.328717 35 61.164829 35.026788 61 35.050781 L 61 20 z M 63 20 L 70 20 C 71.041291 20 72.045294 20.153446 73 20.423828 L 73 29.5 A 0.50005 0.50005 0 1 0 74 29.5 L 74 20.761719 C 78.094774 22.363138 81 26.337977 81 31 L 81 41.058594 L 77.1875 44.109375 A 0.50005 0.50005 0 0 0 77.050781 44.279297 L 74 50.462891 L 74 39.5 A 0.50005 0.50005 0 0 0 73.492188 38.992188 A 0.50005 0.50005 0 0 0 73 39.5 L 73 50.699219 L 69.935547 45.253906 A 0.50005 0.50005 0 0 0 69.199219 45.099609 L 65.701172 47.722656 L 63.005859 41.658203 C 64.185694 41.094279 65 39.889584 65 38.5 C 65 37.11143 64.177292 35.916428 63 35.351562 L 63 20 z M 50.492188 27.992188 A 0.50005 0.50005 0 0 0 50 28.5 L 50 30.5 A 0.50005 0.50005 0 1 0 51 30.5 L 51 28.5 A 0.50005 0.50005 0 0 0 50.492188 27.992188 z M 27.492188 31.992188 A 0.50005 0.50005 0 0 0 27 32.5 L 27 36.5 A 0.50005 0.50005 0 1 0 28 36.5 L 28 32.5 A 0.50005 0.50005 0 0 0 27.492188 31.992188 z M 73.492188 31.992188 A 0.50005 0.50005 0 0 0 73 32.5 L 73 35.5 A 0.50005 0.50005 0 1 0 74 35.5 L 74 32.5 A 0.50005 0.50005 0 0 0 73.492188 31.992188 z M 61.5 36 C 62.886833 36 64 37.113167 64 38.5 C 64 39.644128 63.23734 40.601138 62.197266 40.902344 C 61.977543 40.966188 61.742874 41 61.5 41 C 60.113167 41 59 39.886833 59 38.5 C 59 37.113167 60.113167 36 61.5 36 z M 61.148438 41.964844 C 61.265788 41.976827 61.379586 42 61.5 42 C 61.668563 42 61.837273 41.988243 62 41.964844 L 62 81 L 61 81 L 61 42.380859 L 61.148438 41.964844 z M 81 42.339844 L 81 70 C 81 74.662023 78.094774 78.636862 74 80.238281 L 74 52.724609 L 77.898438 44.820312 L 81 42.339844 z M 63 44.107422 L 65.042969 48.703125 A 0.50005 0.50005 0 0 0 65.800781 48.900391 L 69.34375 46.242188 L 73 52.736328 L 73 80.576172 C 72.045294 80.846554 71.041291 81 70 81 L 63 81 L 63 44.107422 z M 60 45.173828 L 60 81 L 51 81 L 51 77.5 A 0.50005 0.50005 0 0 0 50.492188 76.992188 A 0.50005 0.50005 0 0 0 50 77.5 L 50 81 L 39 81 L 39 73.5 A 0.50005 0.50005 0 0 0 38.492188 72.992188 A 0.50005 0.50005 0 0 0 38 73.5 L 38 81 L 31 81 C 29.958709 81 28.954706 80.846554 28 80.576172 L 28 57.976562 L 30.675781 56.96875 A 0.50005 0.50005 0 0 0 30.890625 56.8125 L 34.640625 52.123047 L 38 53.746094 L 38 69.5 A 0.50005 0.50005 0 1 0 39 69.5 L 39 53.552734 L 42.447266 46.716797 L 46.035156 55.685547 A 0.50005 0.50005 0 0 0 46.277344 55.947266 L 50 57.808594 L 50 66.5 A 0.50005 0.50005 0 1 0 51 66.5 L 51 57.654297 L 54.849609 51.982422 L 57.728516 50.972656 A 0.50005 0.50005 0 0 0 58.033203 50.667969 L 60 45.173828 z M 20 55.140625 L 23.318359 55.970703 L 27 57.929688 L 27 80.238281 C 22.905226 78.636862 20 74.662023 20 70 L 20 55.140625 z M 50.492188 68.992188 A 0.50005 0.50005 0 0 0 50 69.5 L 50 73.5 A 0.50005 0.50005 0 1 0 51 73.5 L 51 69.5 A 0.50005 0.50005 0 0 0 50.492188 68.992188 z"></path>
</svg>